<mxfile host="app.diagrams.net" modified="2023-09-25T05:31:15.078Z" agent="Mozilla/5.0 (Windows NT 10.0; Win64; x64; rv:109.0) Gecko/20100101 Firefox/117.0" version="21.8.0" etag="Bi0DqCbNEa2pS7DprH7n" type="github">
  <diagram name="Sivu-1" id="W4FFq_kZuzr-m5j0ewvB">
    <mxGraphModel>
      <root>
        <mxCell id="0" />
        <mxCell id="1" parent="0" />
      </root>
    </mxGraphModel>
  </diagram>
</mxfile>
